<svg t="1748400523616" class="icon" viewBox="0 0 1024 1024" version="1.1" xmlns="http://www.w3.org/2000/svg" p-id="2164"
    width="200" height="200">
    <path
        d="M891.074571 255.286244 701.059913 255.286244l-1.601474 0c-22.563902 0-49.683563-17.130146-58.268078-27.375487-9.639544-11.508102-20.786419-24.816199-30.236652-36.09508-7.296173-8.712429-24.526603-25.326828-52.823066-25.326828-14.982226 0-77.440743 0-92.483344 0-27.739784 0-42.614563 12.57848-55.202253 27.605731-9.130961 10.899234-19.589151 23.382547-28.6669 34.219359-8.221242 9.813506-35.771715 26.972305-57.458643 26.972305l-1.605567 0L132.924405 255.286244c-24.63098 0-44.596707-19.968797-44.596707-44.599777 0-24.628934 19.965727-44.596707 44.596707-44.596707L291.451932 166.089759c0 0 41.538045-6.732331 59.240219-27.569916 9.978259-11.740392 21.221324-25.596981 30.705326-37.033451 4.3951-5.302773 32.256658-24.026206 51.770084-24.026206 31.819706 0 125.093043 0 157.230997 0 22.289656 0 49.059346 19.645432 53.748135 25.302269 9.302877 11.218506 20.949124 23.912619 29.763884 35.902698 14.72333 20.024056 58.665121 27.424606 58.665121 27.424606l158.49785 0c24.63098 0 44.596707 19.968797 44.596707 44.596707C935.672302 235.317447 915.705552 255.286244 891.074571 255.286244zM623.49228 768.149914c-24.63098 0-44.596707-19.965727-44.596707-44.594661l0-334.477864c0-24.633027 19.965727-44.596707 44.596707-44.596707 24.63098 0 44.596707 19.963681 44.596707 44.596707l0 334.477864C668.090011 748.183164 648.12326 768.149914 623.49228 768.149914zM445.104427 389.07739l0 334.477864c0 24.628934-19.965727 44.594661-44.596707 44.594661s-44.596707-19.965727-44.596707-44.594661l0-334.477864c0-24.633027 19.965727-44.596707 44.596707-44.596707S445.104427 364.443339 445.104427 389.07739zM199.819978 322.178747c24.63098 0 44.596707 19.968797 44.596707 44.599777l0 89.194438 0 356.776729c0 24.628934 19.965727 44.596707 44.596707 44.596707l445.970144 0c24.63098 0 44.596707-19.968797 44.596707-44.596707L779.580245 455.972962l0-89.194438c0-24.63098 19.965727-44.599777 44.596707-44.599777 24.63098 0 44.596707 19.968797 44.596707 44.599777l0 89.194438 0 379.074571c0 61.575404-49.91483 111.49228-111.490234 111.49228L266.715551 946.539814c-61.575404 0-111.49228-49.9179-111.49228-111.49228L155.223271 455.972962l0-89.194438C155.223271 342.147544 175.188998 322.178747 199.819978 322.178747z"
        fill="#FF6CAF" p-id="2165"></path>
</svg>