<svg t="1748313588243" class="icon" viewBox="0 0 1024 1024" version="1.1" xmlns="http://www.w3.org/2000/svg"
    p-id="13893" width="200" height="200">
    <path d="M575.7952 511.0272m-371.4048 0a371.4048 371.4048 0 1 0 742.8096 0 371.4048 371.4048 0 1 0-742.8096 0Z"
        fill="#80B7F9" p-id="13894"></path>
    <path d="M463.9744 470.0672m-387.1744 0a387.1744 387.1744 0 1 0 774.3488 0 387.1744 387.1744 0 1 0-774.3488 0Z"
        fill="#80B7F9" p-id="13895"></path>
    <path
        d="M851.0976 470.0672c0-127.3856-61.5424-240.3328-156.4672-310.9376a371.26656 371.26656 0 0 0-118.8864-19.5584c-205.1584 0-371.4048 166.2976-371.4048 371.4048 0 156.8256 97.2288 290.816 234.6496 345.2928 8.2432 0.512 16.5888 0.8704 24.9856 0.8704 213.8112 0.0512 387.1232-173.2608 387.1232-387.072z"
        fill="#3E8BF8" p-id="13896"></path>
    <path
        d="M463.9744 736.512c-119.0912 0-224.6144-80.0256-256.6656-194.6112-6.0928-21.76 6.656-44.3904 28.416-50.4832a40.97536 40.97536 0 0 1 50.4832 28.416c22.1696 79.36 95.232 134.7584 177.7664 134.7584 22.6304 0 40.96 18.3296 40.96 40.96s-18.3808 40.96-40.96 40.96z"
        fill="#FFFFFF" p-id="13897"></path>
    <path
        d="M858.3168 966.5024c-11.8272 0-23.7056-4.5568-32.6656-13.6192l-207.872-209.152c-17.92-18.0736-17.8688-47.2064 0.2048-65.1776 18.0224-17.92 47.2064-17.8688 65.1776 0.2048l207.872 209.152c17.92 18.0736 17.8688 47.2064-0.2048 65.1776a46.20288 46.20288 0 0 1-32.512 13.4144z"
        fill="#3E8BF8" p-id="13898"></path>
</svg>