<svg t="1749106496505" class="icon" viewBox="0 0 1024 1024" version="1.1" xmlns="http://www.w3.org/2000/svg"
    p-id="11670" width="200" height="200">
    <path
        d="M298.624 127.573333a170.666667 170.666667 0 0 0-170.666667 170.666667v426.666667a170.666667 170.666667 0 0 0 170.666667 170.666666h426.666667a170.666667 170.666667 0 0 0 170.666666-170.666666v-426.666667a170.666667 170.666667 0 0 0-170.666666-170.666667h-426.666667z m0 85.333334h426.666667a85.333333 85.333333 0 0 1 85.333333 85.333333v213.333333h-170.666667a42.666667 42.666667 0 0 0-42.666666 42.666667 85.333333 85.333333 0 1 1-170.666667 0 42.666667 42.666667 0 0 0-42.666667-42.666667h-170.666666v-213.333333a85.333333 85.333333 0 0 1 85.333333-85.333333z m-85.333333 384h134.656c19.2 73.216 84.778667 128 164.010666 128 79.189333 0 146.048-54.784 165.290667-128H810.666667v128a85.333333 85.333333 0 0 1-85.333334 85.333333h-426.666666a85.333333 85.333333 0 0 1-85.333334-85.333333v-128z"
        fill="#000000" p-id="11671"></path>
</svg>