<svg t="1748249046740" class="icon" viewBox="0 0 1024 1024" version="1.1" xmlns="http://www.w3.org/2000/svg" p-id="4983"
    width="200" height="200">
    <path
        d="M637.7984 940.4928H242.432c-77.4656 0-140.2368-62.7712-140.2368-140.2368V378.624c0-28.5184 23.1424-51.6608 51.6608-51.6608h572.5184c28.5184 0 51.6608 23.1424 51.6608 51.6608v421.632c0 77.4144-62.8224 140.2368-140.2368 140.2368z"
        fill="#A5ADF6" p-id="4984"></path>
    <path d="M748.8 630.5792m-183.3472 0a183.3472 183.3472 0 1 0 366.6944 0 183.3472 183.3472 0 1 0-366.6944 0Z"
        fill="#A5ADF6" p-id="4985"></path>
    <path
        d="M748.8 447.232c-101.2736 0-183.3472 82.0736-183.3472 183.3472s82.0736 183.3472 183.3472 183.3472c9.6256 0 19.0464-0.768 28.2624-2.2016 0.5632-5.2736 0.9216-10.6496 0.9216-16.128V449.5872c-9.472-1.536-19.2512-2.3552-29.184-2.3552z"
        fill="#635DF7" p-id="4986"></path>
    <path
        d="M251.392 283.8528c-18.2272 0-34.8672-12.288-39.6288-30.72-10.1376-39.3216 3.6864-79.36 37.9904-109.7216 2.7648-3.4304 2.4576-18.8928 0.1536-27.0848-6.144-21.76 6.5536-44.3904 28.3136-50.5344 21.8112-6.0928 44.3904 6.5536 50.5344 28.3136 2.048 7.2704 18.7392 72.1408-24.6784 110.592-16.4864 14.592-13.9776 24.32-13.0048 27.9552 5.632 21.9136-7.5264 44.2368-29.44 49.8688-3.4304 0.8704-6.8608 1.3312-10.24 1.3312zM423.3728 283.8528c-18.2272 0-34.8672-12.288-39.6288-30.72-10.1376-39.3216 3.6864-79.36 37.9904-109.7216 2.7136-3.4304 2.4576-18.8928 0.1536-27.0848-6.144-21.76 6.5536-44.3904 28.3136-50.5344 21.8112-6.0928 44.3904 6.5536 50.5344 28.3136 2.048 7.2704 18.7392 72.0896-24.6784 110.592-16.4864 14.592-13.9776 24.32-13.0048 27.9552 5.632 21.9136-7.5264 44.2368-29.44 49.8688-3.4304 0.8704-6.8608 1.3312-10.24 1.3312zM611.3792 283.8528c-18.2272 0-34.8672-12.288-39.6288-30.72-10.1376-39.3216 3.6864-79.36 37.9904-109.7216 2.7136-3.4304 2.4576-18.8928 0.1536-27.0848-6.144-21.76 6.5536-44.3904 28.3136-50.5344 21.8112-6.0928 44.3904 6.5536 50.5344 28.3136 2.048 7.2704 18.7392 72.0896-24.6784 110.592-16.4864 14.592-13.9776 24.32-13.0048 27.9552 5.632 21.9136-7.5264 44.2368-29.44 49.8688-3.4304 0.8704-6.8608 1.3312-10.24 1.3312z"
        fill="#A5ADF6" p-id="4987"></path>
    <path
        d="M236.8 774.4512c-22.6304 0-40.96-18.3296-40.96-40.96v-220.0576c0-22.6304 18.3296-40.96 40.96-40.96s40.96 18.3296 40.96 40.96v220.0576c0 22.6304-18.3296 40.96-40.96 40.96z"
        fill="#FFFFFF" p-id="4988"></path>
</svg>