<svg t="1747981625887" class="icon" viewBox="0 0 1024 1024" version="1.1" xmlns="http://www.w3.org/2000/svg"
    p-id="36147" width="200" height="200">
    <path d="M298.666667 298.666667a85.333333 85.333333 0 1 1-170.666667 0 85.333333 85.333333 0 0 1 170.666667 0z"
        fill="#000000" fill-opacity=".4" p-id="36148"></path>
    <path
        d="M269.397333 427.178667a64 64 0 0 1 71.381334 55.168l0.085333 0.469333 0.597333 3.413333a195.754667 195.754667 0 0 0 20.992 58.453334c16.725333 29.653333 41.258667 52.650667 85.546667 52.650666 25.941333 0 44.885333-8.746667 81.578667-25.685333l0.938666-0.426667c36.565333-16.896 84.394667-37.888 152.149334-37.888h170.666666v128h-170.666666c-38.912 0-65.706667 11.008-98.517334 26.112l-7.082666 3.285334c-31.445333 14.677333-74.154667 34.602667-129.066667 34.602666-105.045333 0-165.845333-62.336-197.12-117.973333a323.413333 323.413333 0 0 1-36.864-107.392l-0.128-0.810667v-0.298666l-0.042667-0.128v-0.085334L277.333333 490.666667l-63.488 7.936a64 64 0 0 1 55.552-71.424zM853.333333 661.333333a64 64 0 1 0 0-128v128z"
        fill="#000000" p-id="36149"></path>
</svg>