<svg t="1747970520512" class="icon" viewBox="0 0 1049 1024" version="1.1" xmlns="http://www.w3.org/2000/svg"
    p-id="30526" width="200" height="200">
    <path
        d="M484.072727 928.793388c-22.849587-11.847934-33.004959-26.657851-96.052892-137.520661-33.428099-59.239669-110.016529-194.644628-170.52562-300.429752-60.08595-105.785124-110.86281-199.299174-112.978513-207.338843-11.001653-41.044628 15.233058-86.743802 57.547108-99.438016 33.004959-9.732231 61.355372-2.538843 84.204959 22.003305 9.732231 10.155372 83.781818 137.943802 210.723967 363.054546 15.656198 27.927273 48.238017 85.05124 71.933884 126.942149 78.280992 137.943802 74.049587 128.21157 74.049587 156.561983 0 29.619835-8.88595 47.391736-33.004959 67.279339-13.963636 11.001653-20.310744 13.117355-44.429752 14.386777-19.887603 0.846281-32.158678-0.846281-41.467769-5.500827z"
        fill="currentColor" p-id="30527"></path>
    <path
        d="M666.446281 714.684298c-24.119008-6.770248-39.775207-26.657851-88.013223-111.709091-172.218182-303.814876-178.98843-316.08595-182.796694-336.819835-8.88595-46.968595 35.966942-96.899174 87.166942-96.899174 15.233058 0 53.315702 19.887603 62.201653 33.004959 7.616529 11.001653 211.993388 371.517355 223.841322 395.213223 33.428099 65.586777-30.466116 138.366942-102.4 117.209918z"
        fill="currentColor" p-id="30528"></path>
    <path
        d="M810.73719 464.185124c-8.88595-5.077686-20.733884-14.809917-26.234711-22.003306-17.34876-23.272727-89.705785-160.370248-92.667768-176.026446-6.347107-34.697521 19.464463-77.434711 55.008264-90.975207 33.004959-12.271074 74.895868-0.42314 94.783471 27.080992 8.88595 13.117355 63.047934 109.170248 82.089256 145.983471 10.578512 21.157025 12.271074 27.504132 10.155372 45.699174-3.808264 32.158678-19.464463 55.854545-46.122314 68.9719-27.080992 13.540496-53.738843 13.963636-77.01157 1.269422z"
        fill="currentColor" p-id="30529"></path>
</svg>